<svg width="248" height="49" viewBox="0 0 248 49" fill="none" xmlns="http://www.w3.org/2000/svg">
<path d="M0.93586 8.0366H6.77222L14.5654 17.0719C19.7155 11.0484 22.3018 8.0366 22.3245 8.0366H28.1779C28.2233 8.04795 28.246 8.07631 28.246 8.12168V26.2093C28.246 26.266 28.2233 26.2944 28.1779 26.2944H22.4947C22.438 26.2944 22.4096 26.266 22.4096 26.2093V15.4384L14.6164 24.4907H14.5314C14.486 24.4794 11.8712 21.4619 6.68714 15.4384V26.2093C6.68714 26.266 6.65879 26.2944 6.60207 26.2944H0.93586C0.879141 26.2944 0.850782 26.266 0.850782 26.2093V8.12168C0.862126 8.06496 0.890485 8.0366 0.93586 8.0366ZM30.0326 8.0366H54.9435C55.0002 8.04795 55.0286 8.07631 55.0286 8.12168V12.2905C55.0286 12.3472 55.0002 12.3756 54.9435 12.3756H30.0326C29.9759 12.3756 29.9475 12.3472 29.9475 12.2905V8.12168C29.9589 8.06496 29.9872 8.0366 30.0326 8.0366ZM30.0326 15.1832H54.9435C55.0002 15.1945 55.0286 15.2229 55.0286 15.2682V19.0627C55.0286 19.1195 55.0002 19.1478 54.9435 19.1478H30.0326C29.9759 19.1478 29.9475 19.1195 29.9475 19.0627V15.2682C29.9589 15.2115 29.9872 15.1832 30.0326 15.1832ZM30.0326 21.9724H54.9435C55.0002 21.9724 55.0286 21.9951 55.0286 22.0405V26.2093C55.0286 26.266 55.0002 26.2944 54.9435 26.2944H30.0326C29.9759 26.2944 29.9475 26.266 29.9475 26.2093V22.0405C29.9589 21.9951 29.9872 21.9724 30.0326 21.9724ZM56.8152 8.0366H81.7261C81.7828 8.04795 81.8112 8.07631 81.8112 8.12168V12.2905C81.8112 12.3472 81.7828 12.3756 81.7261 12.3756H72.2144V26.2093C72.2144 26.266 72.186 26.2944 72.1293 26.2944H66.4461C66.3893 26.2944 66.361 26.266 66.361 26.2093V12.3756H56.8152C56.7585 12.3756 56.7301 12.3472 56.7301 12.2905V8.12168C56.7415 8.06496 56.7698 8.0366 56.8152 8.0366ZM94.2496 8.0366H100.052C100.165 8.1387 101.362 10.1295 103.642 14.0091C108.248 21.8249 110.647 25.9087 110.84 26.2603V26.2944H104.136C103.977 26.1356 101.907 22.653 97.925 15.8468C97.4372 15.03 97.182 14.6217 97.1593 14.6217C92.6785 22.2333 90.3757 26.1242 90.2509 26.2944H83.5127V26.2093C90.4097 14.4912 93.9887 8.43364 94.2496 8.0366ZM112.541 8.0366H119.246C119.45 8.26348 120.198 9.51696 121.492 11.7971C121.594 11.9218 123.159 14.5649 126.188 19.7263H126.222C130.748 12.0353 133.051 8.1387 133.13 8.0366H139.869C139.869 8.15004 138.15 11.0767 134.713 16.8167C132.036 21.3995 130.17 24.5588 129.115 26.2944H123.278C122.995 25.886 119.472 19.9078 112.712 8.3599C112.666 8.3599 112.609 8.25214 112.541 8.0366ZM141.655 8.0366H166.566C166.623 8.04795 166.651 8.07631 166.651 8.12168V12.2905C166.651 12.3472 166.623 12.3756 166.566 12.3756H141.655C141.598 12.3756 141.57 12.3472 141.57 12.2905V8.12168C141.581 8.06496 141.61 8.0366 141.655 8.0366ZM141.655 15.1832H166.566C166.623 15.1945 166.651 15.2229 166.651 15.2682V19.0627C166.651 19.1195 166.623 19.1478 166.566 19.1478H141.655C141.598 19.1478 141.57 19.1195 141.57 19.0627V15.2682C141.581 15.2115 141.61 15.1832 141.655 15.1832ZM141.655 21.9724H166.566C166.623 21.9724 166.651 21.9951 166.651 22.0405V26.2093C166.651 26.266 166.623 26.2944 166.566 26.2944H141.655C141.598 26.2944 141.57 26.266 141.57 26.2093V22.0405C141.581 21.9951 141.61 21.9724 141.655 21.9724ZM168.438 8.0366H187.665C189.412 8.0366 190.938 8.70589 192.243 10.0444C193.037 10.9633 193.434 11.9559 193.434 13.0222V16.3232C193.434 18.0361 192.492 19.4541 190.609 20.5771L189.877 20.9004L193.434 26.2603L193.349 26.2944H186.44C186.27 26.1015 185.141 24.4283 183.054 21.2748H174.189V26.2093C174.189 26.266 174.161 26.2944 174.104 26.2944H168.438C168.381 26.2944 168.353 26.266 168.353 26.2093V8.12168C168.364 8.06496 168.392 8.0366 168.438 8.0366ZM174.189 12.3756V16.9358H185.266C186.446 16.9358 187.195 16.4196 187.512 15.3874C187.558 15.1491 187.58 14.9166 187.58 14.6897C187.58 13.5894 187.121 12.8577 186.202 12.4947C185.919 12.4153 185.629 12.3756 185.334 12.3756H174.189ZM200.819 8.0366H220.131C220.188 8.04795 220.216 8.07631 220.216 8.12168V12.2905C220.216 12.3472 220.188 12.3756 220.131 12.3756H202.452C201.465 12.5004 200.972 12.9768 200.972 13.8049C200.972 14.3607 201.272 14.7805 201.874 15.0641C202.055 15.1435 202.271 15.1832 202.52 15.1832H214.533C216.223 15.1832 217.721 15.8525 219.025 17.191C219.819 18.1099 220.216 19.0911 220.216 20.1347V21.3939C220.216 23.1748 219.178 24.6155 217.102 25.7158C216.24 26.1015 215.356 26.2944 214.448 26.2944H195.22C195.164 26.2944 195.135 26.266 195.135 26.2093V22.0405C195.147 21.9951 195.175 21.9724 195.22 21.9724H212.815C213.529 21.9724 214.023 21.6548 214.295 21.0195C214.34 20.7473 214.363 20.5885 214.363 20.5431C214.363 19.9759 214.068 19.5505 213.478 19.2669C213.297 19.1875 213.075 19.1478 212.815 19.1478H200.972C199.021 19.1478 197.387 18.3878 196.071 16.8677C195.447 16.0396 195.135 15.1662 195.135 14.2473V12.9882C195.135 11.3206 196.06 9.94236 197.909 8.85335C198.964 8.36557 199.934 8.09332 200.819 8.0366ZM227.55 8.0366H241.112C243.153 8.0366 244.815 8.82499 246.097 10.4018C246.698 11.2412 246.999 12.126 246.999 13.0562V21.3088C246.999 23.1578 245.961 24.6155 243.885 25.6818C243.012 26.0902 242.087 26.2944 241.112 26.2944H227.72C225.735 26.2944 224.085 25.489 222.769 23.8782C222.202 23.0728 221.918 22.2333 221.918 21.3598V13.0222C221.918 11.0824 223.064 9.57368 225.355 8.49603C226.263 8.18974 226.994 8.0366 227.55 8.0366ZM227.754 15.3533V18.9436C227.754 20.4183 228.52 21.3995 230.051 21.8873C230.267 21.9441 230.494 21.9724 230.732 21.9724H238.219C239.557 21.9724 240.493 21.2634 241.026 19.8455C241.106 19.6413 241.146 19.369 241.146 19.0287V15.5575C241.146 14.0034 240.425 12.9655 238.985 12.4437C238.565 12.3983 238.196 12.3756 237.879 12.3756H230.732C229.359 12.3756 228.407 13.0789 227.873 14.4855C227.794 14.7691 227.754 15.0584 227.754 15.3533Z" fill="black"/>
<path d="M6.77222 8.0366L6.79626 8.01588L6.78676 8.00487H6.77222V8.0366ZM14.5654 17.0719L14.5414 17.0926L14.5655 17.1206L14.5895 17.0925L14.5654 17.0719ZM28.1779 8.0366L28.1858 8.00487H28.1779V8.0366ZM22.4096 15.4384H22.4413V15.3529L22.3855 15.4177L22.4096 15.4384ZM14.6164 24.4907V24.5225H14.631L14.6405 24.5114L14.6164 24.4907ZM14.5314 24.4907L14.5234 24.5225H14.5314V24.4907ZM6.68714 15.4384L6.7112 15.4177L6.65541 15.3529V15.4384H6.68714ZM0.850782 8.12168L0.819045 8.11533V8.12168H0.850782ZM0.93586 8.06834H6.77222V8.00487H0.93586V8.06834ZM6.74819 8.05733L14.5414 17.0926L14.5894 17.0512L6.79626 8.01588L6.74819 8.05733ZM14.5895 17.0925C17.1645 14.0808 19.0986 11.822 20.3918 10.3161C21.0384 9.56317 21.5247 8.99851 21.8508 8.62209C22.0138 8.43387 22.1368 8.29278 22.2196 8.19876C22.2611 8.15174 22.2924 8.1166 22.3137 8.09328C22.3243 8.08158 22.3323 8.07305 22.3376 8.06754C22.3404 8.06473 22.3421 8.06305 22.343 8.06222C22.3435 8.06173 22.3433 8.06199 22.3426 8.06254C22.3422 8.06279 22.3411 8.06362 22.3394 8.06454C22.3391 8.0647 22.3331 8.06834 22.3245 8.06834V8.00487C22.3157 8.00487 22.3094 8.0086 22.3088 8.00894C22.3068 8.01005 22.3053 8.01116 22.3045 8.01177C22.3028 8.01305 22.3012 8.01441 22.3001 8.0154C22.2978 8.01751 22.2951 8.02024 22.2921 8.02331C22.286 8.02957 22.2775 8.03869 22.2668 8.05052C22.2451 8.07425 22.2135 8.10971 22.172 8.1568C22.089 8.25102 21.9659 8.39228 21.8028 8.58053C21.4766 8.95705 20.9902 9.5218 20.3436 10.2748C19.0504 11.7807 17.1163 14.0395 14.5413 17.0513L14.5895 17.0925ZM22.3245 8.06834H28.1779V8.00487H22.3245V8.06834ZM28.1702 8.06739C28.1881 8.07187 28.1983 8.07884 28.2042 8.08621C28.21 8.09347 28.2142 8.10436 28.2142 8.12168H28.2777C28.2777 8.09363 28.2706 8.06765 28.2537 8.04656C28.2369 8.02556 28.2131 8.01268 28.1856 8.00581L28.1702 8.06739ZM28.2142 8.12168V26.2093H28.2777V8.12168H28.2142ZM28.2142 26.2093C28.2142 26.2343 28.2091 26.2471 28.2042 26.2533C28.2003 26.2581 28.1936 26.2626 28.1779 26.2626V26.3261C28.2076 26.3261 28.2349 26.3165 28.2537 26.2929C28.2715 26.2707 28.2777 26.2411 28.2777 26.2093H28.2142ZM28.1779 26.2626H22.4947V26.3261H28.1779V26.2626ZM22.4947 26.2626C22.4712 26.2626 22.4594 26.2568 22.4533 26.2507C22.4472 26.2445 22.4413 26.2328 22.4413 26.2093H22.3779C22.3779 26.2426 22.3862 26.2733 22.4084 26.2956C22.4307 26.3178 22.4614 26.3261 22.4947 26.3261V26.2626ZM22.4413 26.2093V15.4384H22.3779V26.2093H22.4413ZM22.3855 15.4177L14.5924 24.47L14.6405 24.5114L22.4336 15.4591L22.3855 15.4177ZM14.6164 24.459H14.5314V24.5225H14.6164V24.459ZM14.5391 24.4599C14.5424 24.4608 14.5447 24.462 14.5456 24.4624C14.5467 24.463 14.5474 24.4635 14.5477 24.4637C14.5482 24.4641 14.5483 24.4642 14.5477 24.4637C14.5466 24.4627 14.5446 24.461 14.5416 24.458C14.5357 24.4523 14.5271 24.4435 14.5158 24.4315C14.4931 24.4076 14.4604 24.3719 14.4175 24.3243C14.3316 24.2291 14.2056 24.0869 14.0394 23.8976C13.707 23.5191 13.2139 22.9527 12.5603 22.1984C11.2529 20.6897 9.30324 18.4295 6.7112 15.4177L6.66309 15.4591C9.25514 18.4709 11.2049 20.7312 12.5123 22.2399C13.166 22.9943 13.6591 23.5608 13.9917 23.9395C14.158 24.1288 14.2842 24.2713 14.3703 24.3668C14.4134 24.4145 14.4465 24.4507 14.4697 24.4752C14.4812 24.4874 14.4906 24.497 14.4975 24.5037C14.5009 24.507 14.5041 24.51 14.507 24.5123C14.5083 24.5135 14.5101 24.5148 14.5119 24.5161C14.5129 24.5168 14.5174 24.5199 14.5237 24.5215L14.5391 24.4599ZM6.65541 15.4384V26.2093H6.71888V15.4384H6.65541ZM6.65541 26.2093C6.65541 26.2328 6.64956 26.2445 6.64343 26.2507C6.63731 26.2568 6.62553 26.2626 6.60207 26.2626V26.3261C6.63532 26.3261 6.66609 26.3178 6.68832 26.2956C6.71055 26.2733 6.71888 26.2426 6.71888 26.2093H6.65541ZM6.60207 26.2626H0.93586V26.3261H6.60207V26.2626ZM0.93586 26.2626C0.912393 26.2626 0.900621 26.2568 0.894492 26.2507C0.888364 26.2445 0.882518 26.2328 0.882518 26.2093H0.819045C0.819045 26.2426 0.82738 26.2733 0.84961 26.2956C0.871841 26.3178 0.902609 26.3261 0.93586 26.3261V26.2626ZM0.882518 26.2093V8.12168H0.819045V26.2093H0.882518ZM0.881902 8.12791C0.886863 8.1031 0.894808 8.08851 0.903 8.08031C0.910427 8.07289 0.920385 8.06834 0.93586 8.06834V8.00487C0.90596 8.00487 0.879051 8.0145 0.858118 8.03543C0.837951 8.0556 0.826045 8.08354 0.819662 8.11546L0.881902 8.12791ZM54.9435 8.0366L54.9498 8.00487H54.9435V8.0366ZM29.9475 8.12168L29.9158 8.11533V8.12168H29.9475ZM54.9435 15.1832L54.9498 15.1514H54.9435V15.1832ZM29.9475 15.2682L29.9158 15.2619V15.2682H29.9475ZM29.9475 22.0405L29.9158 22.0325V22.0405H29.9475ZM30.0326 8.06834H54.9435V8.00487H30.0326V8.06834ZM54.9373 8.06772C54.9621 8.07268 54.9767 8.08063 54.9849 8.08882C54.9923 8.09625 54.9968 8.10621 54.9968 8.12168H55.0603C55.0603 8.09178 55.0507 8.06487 55.0297 8.04394C55.0096 8.02377 54.9816 8.01187 54.9497 8.00548L54.9373 8.06772ZM54.9968 8.12168V12.2905H55.0603V8.12168H54.9968ZM54.9968 12.2905C54.9968 12.314 54.991 12.3258 54.9849 12.3319C54.9787 12.338 54.967 12.3439 54.9435 12.3439V12.4073C54.9767 12.4073 55.0075 12.399 55.0297 12.3768C55.052 12.3545 55.0603 12.3238 55.0603 12.2905H54.9968ZM54.9435 12.3439H30.0326V12.4073H54.9435V12.3439ZM30.0326 12.3439C30.0091 12.3439 29.9974 12.338 29.9912 12.3319C29.9851 12.3258 29.9793 12.314 29.9793 12.2905H29.9158C29.9158 12.3238 29.9241 12.3545 29.9463 12.3768C29.9686 12.399 29.9993 12.4073 30.0326 12.4073V12.3439ZM29.9793 12.2905V8.12168H29.9158V12.2905H29.9793ZM29.9786 8.12791C29.9836 8.1031 29.9915 8.08851 29.9997 8.08031C30.0072 8.07289 30.0171 8.06834 30.0326 8.06834V8.00487C30.0027 8.00487 29.9758 8.0145 29.9549 8.03543C29.9347 8.0556 29.9228 8.08354 29.9164 8.11546L29.9786 8.12791ZM30.0326 15.2149H54.9435V15.1514H30.0326V15.2149ZM54.9373 15.2143C54.9621 15.2193 54.9767 15.2272 54.9849 15.2354C54.9923 15.2428 54.9968 15.2528 54.9968 15.2682H55.0603C55.0603 15.2383 55.0507 15.2114 55.0297 15.1905C55.0096 15.1703 54.9816 15.1584 54.9497 15.1521L54.9373 15.2143ZM54.9968 15.2682V19.0627H55.0603V15.2682H54.9968ZM54.9968 19.0627C54.9968 19.0862 54.991 19.098 54.9849 19.1041C54.9787 19.1102 54.967 19.1161 54.9435 19.1161V19.1796C54.9767 19.1796 55.0075 19.1712 55.0297 19.149C55.052 19.1268 55.0603 19.096 55.0603 19.0627H54.9968ZM54.9435 19.1161H30.0326V19.1796H54.9435V19.1161ZM30.0326 19.1161C30.0091 19.1161 29.9974 19.1102 29.9912 19.1041C29.9851 19.098 29.9793 19.0862 29.9793 19.0627H29.9158C29.9158 19.096 29.9241 19.1268 29.9463 19.149C29.9686 19.1712 29.9993 19.1796 30.0326 19.1796V19.1161ZM29.9793 19.0627V15.2682H29.9158V19.0627H29.9793ZM29.9786 15.2745C29.9836 15.2497 29.9915 15.2351 29.9997 15.2269C30.0072 15.2195 30.0171 15.2149 30.0326 15.2149V15.1514C30.0027 15.1514 29.9758 15.1611 29.9549 15.182C29.9347 15.2022 29.9228 15.2301 29.9164 15.262L29.9786 15.2745ZM30.0326 22.0041H54.9435V21.9407H30.0326V22.0041ZM54.9435 22.0041C54.9685 22.0041 54.9813 22.0093 54.9875 22.0142C54.9923 22.0181 54.9968 22.0248 54.9968 22.0405H55.0603C55.0603 22.0108 55.0507 21.9835 55.0271 21.9646C55.0049 21.9469 54.9752 21.9407 54.9435 21.9407V22.0041ZM54.9968 22.0405V26.2093H55.0603V22.0405H54.9968ZM54.9968 26.2093C54.9968 26.2328 54.991 26.2445 54.9849 26.2507C54.9787 26.2568 54.967 26.2626 54.9435 26.2626V26.3261C54.9767 26.3261 55.0075 26.3178 55.0297 26.2956C55.052 26.2733 55.0603 26.2426 55.0603 26.2093H54.9968ZM54.9435 26.2626H30.0326V26.3261H54.9435V26.2626ZM30.0326 26.2626C30.0091 26.2626 29.9974 26.2568 29.9912 26.2507C29.9851 26.2445 29.9793 26.2328 29.9793 26.2093H29.9158C29.9158 26.2426 29.9241 26.2733 29.9463 26.2956C29.9686 26.3178 29.9993 26.3261 30.0326 26.3261V26.2626ZM29.9793 26.2093V22.0405H29.9158V26.2093H29.9793ZM29.9783 22.0482C29.9828 22.0303 29.9898 22.0201 29.9971 22.0142C30.0044 22.0084 30.0153 22.0041 30.0326 22.0041V21.9407C30.0045 21.9407 29.9786 21.9478 29.9575 21.9646C29.9365 21.9814 29.9236 22.0053 29.9167 22.0328L29.9783 22.0482ZM81.7261 8.0366L81.7324 8.00487H81.7261V8.0366ZM72.2144 12.3756V12.3439H72.1826V12.3756H72.2144ZM66.361 12.3756H66.3927V12.3439H66.361V12.3756ZM56.7301 8.12168L56.6984 8.11533V8.12168H56.7301ZM56.8152 8.06834H81.7261V8.00487H56.8152V8.06834ZM81.7199 8.06772C81.7447 8.07268 81.7593 8.08063 81.7675 8.08882C81.7749 8.09625 81.7794 8.10621 81.7794 8.12168H81.8429C81.8429 8.09178 81.8333 8.06487 81.8123 8.04394C81.7922 8.02377 81.7642 8.01187 81.7323 8.00548L81.7199 8.06772ZM81.7794 8.12168V12.2905H81.8429V8.12168H81.7794ZM81.7794 12.2905C81.7794 12.314 81.7736 12.3258 81.7675 12.3319C81.7613 12.338 81.7496 12.3439 81.7261 12.3439V12.4073C81.7594 12.4073 81.7901 12.399 81.8123 12.3768C81.8346 12.3545 81.8429 12.3238 81.8429 12.2905H81.7794ZM81.7261 12.3439H72.2144V12.4073H81.7261V12.3439ZM72.1826 12.3756V26.2093H72.2461V12.3756H72.1826ZM72.1826 26.2093C72.1826 26.2328 72.1768 26.2445 72.1706 26.2507C72.1645 26.2568 72.1527 26.2626 72.1293 26.2626V26.3261C72.1625 26.3261 72.1933 26.3178 72.2155 26.2956C72.2378 26.2733 72.2461 26.2426 72.2461 26.2093H72.1826ZM72.1293 26.2626H66.4461V26.3261H72.1293V26.2626ZM66.4461 26.2626C66.4226 26.2626 66.4108 26.2568 66.4047 26.2507C66.3986 26.2445 66.3927 26.2328 66.3927 26.2093H66.3292C66.3292 26.2426 66.3376 26.2733 66.3598 26.2956C66.382 26.3178 66.4128 26.3261 66.4461 26.3261V26.2626ZM66.3927 26.2093V12.3756H66.3292V26.2093H66.3927ZM66.361 12.3439H56.8152V12.4073H66.361V12.3439ZM56.8152 12.3439C56.7917 12.3439 56.78 12.338 56.7738 12.3319C56.7677 12.3258 56.7619 12.314 56.7619 12.2905H56.6984C56.6984 12.3238 56.7067 12.3545 56.729 12.3768C56.7512 12.399 56.782 12.4073 56.8152 12.4073V12.3439ZM56.7619 12.2905V8.12168H56.6984V12.2905H56.7619ZM56.7613 8.12791C56.7662 8.1031 56.7742 8.08851 56.7823 8.08031C56.7898 8.07289 56.7997 8.06834 56.8152 8.06834V8.00487C56.7853 8.00487 56.7584 8.0145 56.7375 8.03543C56.7173 8.0556 56.7054 8.08354 56.699 8.11546L56.7613 8.12791ZM94.2496 8.0366V8.00487H94.2325L94.2231 8.01917L94.2496 8.0366ZM100.052 8.0366L100.073 8.01301L100.064 8.00487H100.052V8.0366ZM103.642 14.0091L103.615 14.0252L103.615 14.0252L103.642 14.0091ZM110.84 26.2603H110.872V26.2522L110.868 26.2451L110.84 26.2603ZM110.84 26.2944V26.3261H110.872V26.2944H110.84ZM104.136 26.2944L104.113 26.3168L104.123 26.3261H104.136V26.2944ZM97.925 15.8468L97.9524 15.8308L97.9522 15.8305L97.925 15.8468ZM97.1593 14.6217V14.5899H97.1411L97.1319 14.6056L97.1593 14.6217ZM90.2509 26.2944V26.3261H90.267L90.2765 26.3131L90.2509 26.2944ZM83.5127 26.2944H83.481V26.3261H83.5127V26.2944ZM83.5127 26.2093L83.4854 26.1932L83.481 26.2007V26.2093H83.5127ZM94.2496 8.06834H100.052V8.00487H94.2496V8.06834ZM100.031 8.06019C100.035 8.06409 100.045 8.07528 100.06 8.09669C100.075 8.11728 100.095 8.14536 100.119 8.18107C100.167 8.25246 100.231 8.35344 100.313 8.48415C100.477 8.74552 100.708 9.12499 101.007 9.62265C101.606 10.6179 102.475 12.0854 103.615 14.0252L103.67 13.993C102.53 12.0532 101.66 10.5855 101.062 9.58995C100.763 9.09219 100.531 8.71233 100.367 8.45047C100.285 8.31957 100.22 8.21796 100.172 8.14577C100.147 8.1097 100.127 8.08075 100.111 8.05907C100.096 8.03821 100.083 8.02188 100.073 8.01301L100.031 8.06019ZM103.615 14.0252C108.221 21.8415 110.619 25.9245 110.812 26.2756L110.868 26.2451C110.675 25.8929 108.275 21.8084 103.67 13.993L103.615 14.0252ZM110.808 26.2603V26.2944H110.872V26.2603H110.808ZM110.84 26.2626H104.136V26.3261H110.84V26.2626ZM104.158 26.2719C104.151 26.2644 104.135 26.2439 104.11 26.2076C104.085 26.1721 104.053 26.1236 104.013 26.0619C103.934 25.9384 103.825 25.763 103.685 25.5355C103.407 25.0805 103.009 24.4178 102.491 23.5472C101.456 21.806 99.9432 19.2339 97.9524 15.8308L97.8976 15.8628C99.8884 19.2659 101.401 21.8382 102.437 23.5796C102.954 24.4503 103.352 25.1133 103.631 25.5686C103.77 25.7963 103.88 25.9722 103.96 26.0962C104 26.1582 104.032 26.2074 104.057 26.2437C104.082 26.2792 104.101 26.3045 104.113 26.3168L104.158 26.2719ZM97.9522 15.8305C97.7083 15.4221 97.5224 15.1156 97.3946 14.9111C97.3308 14.8089 97.2812 14.7319 97.2461 14.6804C97.2286 14.6547 97.2144 14.6348 97.2036 14.6211C97.1982 14.6144 97.1932 14.6084 97.1885 14.6038C97.1863 14.6016 97.1834 14.599 97.18 14.5967C97.1779 14.5952 97.1702 14.5899 97.1593 14.5899V14.6534C97.1539 14.6534 97.15 14.652 97.1481 14.6512C97.146 14.6503 97.1447 14.6494 97.1441 14.649C97.1431 14.6483 97.143 14.6481 97.144 14.649C97.1458 14.6509 97.149 14.6545 97.1538 14.6605C97.1632 14.6723 97.1764 14.6907 97.1937 14.7161C97.228 14.7666 97.2771 14.8428 97.3408 14.9448C97.4682 15.1487 97.6539 15.4547 97.8977 15.8631L97.9522 15.8305ZM97.1319 14.6056C94.8915 18.4114 93.1957 21.287 92.0443 23.2324C91.4686 24.2051 91.0291 24.9453 90.7257 25.4528C90.4215 25.9616 90.2554 26.2347 90.2253 26.2756L90.2765 26.3131C90.3089 26.269 90.4774 25.9919 90.7801 25.4854C91.0836 24.9777 91.5232 24.2375 92.0989 23.2647C93.2503 21.3193 94.9462 18.4436 97.1866 14.6378L97.1319 14.6056ZM90.2509 26.2626H83.5127V26.3261H90.2509V26.2626ZM83.5445 26.2944V26.2093H83.481V26.2944H83.5445ZM83.5401 26.2254C90.4376 14.5065 94.0158 8.45019 94.2761 8.05403L94.2231 8.01917C93.9616 8.41708 90.3819 14.4759 83.4854 26.1932L83.5401 26.2254ZM112.541 8.0366V8.00487H112.498L112.511 8.04616L112.541 8.0366ZM119.246 8.0366L119.269 8.01537L119.26 8.00487H119.246V8.0366ZM121.492 11.7971L121.464 11.8129L121.467 11.8172L121.492 11.7971ZM126.188 19.7263L126.161 19.7424L126.17 19.7581H126.188V19.7263ZM126.222 19.7263V19.7581H126.24L126.249 19.7424L126.222 19.7263ZM133.13 8.0366V8.00487H133.115L133.105 8.01712L133.13 8.0366ZM139.869 8.0366H139.9V8.00487H139.869V8.0366ZM134.713 16.8167L134.686 16.8004L134.685 16.8007L134.713 16.8167ZM129.115 26.2944V26.3261H129.132L129.142 26.3109L129.115 26.2944ZM123.278 26.2944L123.252 26.3125L123.262 26.3261H123.278V26.2944ZM112.712 8.3599L112.739 8.34387L112.73 8.32816H112.712V8.3599ZM112.541 8.06834H119.246V8.00487H112.541V8.06834ZM119.222 8.05783C119.271 8.11235 119.355 8.23108 119.474 8.41643C119.593 8.60104 119.746 8.84991 119.933 9.16315C120.307 9.78959 120.817 10.6727 121.464 11.8127L121.519 11.7814C120.873 10.6413 120.362 9.75765 119.987 9.1306C119.8 8.81709 119.647 8.56754 119.527 8.38207C119.409 8.19733 119.322 8.07429 119.269 8.01537L119.222 8.05783ZM121.467 11.8172C121.478 11.8307 121.512 11.8833 121.572 11.9786C121.63 12.0727 121.711 12.2063 121.815 12.3792C122.024 12.7251 122.324 13.2284 122.715 13.8891C123.498 15.2106 124.646 17.1617 126.161 19.7424L126.215 19.7103C124.701 17.1296 123.552 15.1784 122.77 13.8568C122.378 13.196 122.078 12.6925 121.87 12.3465C121.766 12.1734 121.684 12.0396 121.625 11.9452C121.568 11.8519 121.531 11.7946 121.516 11.777L121.467 11.8172ZM126.188 19.7581H126.222V19.6946H126.188V19.7581ZM126.249 19.7424C128.512 15.8969 130.22 13 131.371 11.0518C131.947 10.0776 132.383 9.34067 132.681 8.84088C132.83 8.59098 132.944 8.40043 133.023 8.26918C133.063 8.20354 133.094 8.15281 133.116 8.11693C133.139 8.08012 133.152 8.06079 133.155 8.05609L133.105 8.01712C133.099 8.02518 133.084 8.04825 133.062 8.08349C133.04 8.11967 133.009 8.17063 132.969 8.23634C132.89 8.36776 132.776 8.55846 132.627 8.8084C132.329 9.30828 131.892 10.0453 131.316 11.0195C130.165 12.9678 128.458 15.8647 126.195 19.7102L126.249 19.7424ZM133.13 8.06834H139.869V8.00487H133.13V8.06834ZM139.837 8.0366C139.837 8.03421 139.837 8.0335 139.837 8.0358C139.836 8.03764 139.835 8.04045 139.834 8.04443C139.831 8.05237 139.826 8.06333 139.82 8.07753C139.806 8.10586 139.787 8.14536 139.76 8.19624C139.706 8.2979 139.626 8.44362 139.519 8.63355C139.304 9.01333 138.982 9.56899 138.552 10.3006C137.693 11.7639 136.404 13.9304 134.686 16.8004L134.74 16.833C136.459 13.963 137.748 11.7962 138.607 10.3328C139.037 9.60106 139.359 9.04503 139.574 8.66478C139.681 8.4747 139.762 8.32831 139.816 8.22579C139.843 8.17458 139.863 8.13396 139.877 8.10415C139.884 8.08929 139.889 8.07667 139.893 8.06653C139.895 8.06147 139.897 8.05662 139.898 8.05216C139.899 8.04817 139.9 8.04254 139.9 8.0366H139.837ZM134.685 16.8007C132.008 21.3836 130.142 24.5426 129.088 26.2779L129.142 26.3109C130.197 24.575 132.063 21.4155 134.74 16.8327L134.685 16.8007ZM129.115 26.2626H123.278V26.3261H129.115V26.2626ZM123.304 26.2763C123.163 26.0734 122.213 24.4785 120.451 21.4884C118.69 18.4993 116.119 14.1178 112.739 8.34387L112.684 8.37594C116.065 14.1499 118.635 18.5315 120.397 21.5206C122.157 24.5087 123.11 26.107 123.252 26.3125L123.304 26.2763ZM112.712 8.32816C112.713 8.32816 112.709 8.32888 112.698 8.31787C112.689 8.30741 112.677 8.29009 112.663 8.2643C112.636 8.21294 112.606 8.13426 112.572 8.02705L112.511 8.04616C112.545 8.15448 112.577 8.23744 112.607 8.29386C112.622 8.32195 112.637 8.34503 112.652 8.36152C112.667 8.37745 112.687 8.39164 112.712 8.39164V8.32816ZM166.566 8.0366L166.572 8.00487H166.566V8.0366ZM141.57 8.12168L141.538 8.11533V8.12168H141.57ZM166.566 15.1832L166.572 15.1514H166.566V15.1832ZM141.57 15.2682L141.538 15.2619V15.2682H141.57ZM141.57 22.0405L141.538 22.0325V22.0405H141.57ZM141.655 8.06834H166.566V8.00487H141.655V8.06834ZM166.56 8.06772C166.585 8.07268 166.599 8.08063 166.607 8.08882C166.615 8.09625 166.619 8.10621 166.619 8.12168H166.683C166.683 8.09178 166.673 8.06487 166.652 8.04394C166.632 8.02377 166.604 8.01187 166.572 8.00548L166.56 8.06772ZM166.619 8.12168V12.2905H166.683V8.12168H166.619ZM166.619 12.2905C166.619 12.314 166.614 12.3258 166.607 12.3319C166.601 12.338 166.59 12.3439 166.566 12.3439V12.4073C166.599 12.4073 166.63 12.399 166.652 12.3768C166.675 12.3545 166.683 12.3238 166.683 12.2905H166.619ZM166.566 12.3439H141.655V12.4073H166.566V12.3439ZM141.655 12.3439C141.632 12.3439 141.62 12.338 141.614 12.3319C141.608 12.3258 141.602 12.314 141.602 12.2905H141.538C141.538 12.3238 141.547 12.3545 141.569 12.3768C141.591 12.399 141.622 12.4073 141.655 12.4073V12.3439ZM141.602 12.2905V8.12168H141.538V12.2905H141.602ZM141.601 8.12791C141.606 8.1031 141.614 8.08851 141.622 8.08031C141.63 8.07289 141.64 8.06834 141.655 8.06834V8.00487C141.625 8.00487 141.598 8.0145 141.577 8.03543C141.557 8.0556 141.545 8.08354 141.539 8.11546L141.601 8.12791ZM141.655 15.2149H166.566V15.1514H141.655V15.2149ZM166.56 15.2143C166.585 15.2193 166.599 15.2272 166.607 15.2354C166.615 15.2428 166.619 15.2528 166.619 15.2682H166.683C166.683 15.2383 166.673 15.2114 166.652 15.1905C166.632 15.1703 166.604 15.1584 166.572 15.1521L166.56 15.2143ZM166.619 15.2682V19.0627H166.683V15.2682H166.619ZM166.619 19.0627C166.619 19.0862 166.614 19.098 166.607 19.1041C166.601 19.1102 166.59 19.1161 166.566 19.1161V19.1796C166.599 19.1796 166.63 19.1712 166.652 19.149C166.675 19.1268 166.683 19.096 166.683 19.0627H166.619ZM166.566 19.1161H141.655V19.1796H166.566V19.1161ZM141.655 19.1161C141.632 19.1161 141.62 19.1102 141.614 19.1041C141.608 19.098 141.602 19.0862 141.602 19.0627H141.538C141.538 19.096 141.547 19.1268 141.569 19.149C141.591 19.1712 141.622 19.1796 141.655 19.1796V19.1161ZM141.602 19.0627V15.2682H141.538V19.0627H141.602ZM141.601 15.2745C141.606 15.2497 141.614 15.2351 141.622 15.2269C141.63 15.2195 141.64 15.2149 141.655 15.2149V15.1514C141.625 15.1514 141.598 15.1611 141.577 15.182C141.557 15.2022 141.545 15.2301 141.539 15.262L141.601 15.2745ZM141.655 22.0041H166.566V21.9407H141.655V22.0041ZM166.566 22.0041C166.591 22.0041 166.604 22.0093 166.61 22.0142C166.615 22.0181 166.619 22.0248 166.619 22.0405H166.683C166.683 22.0108 166.673 21.9835 166.65 21.9646C166.628 21.9469 166.598 21.9407 166.566 21.9407V22.0041ZM166.619 22.0405V26.2093H166.683V22.0405H166.619ZM166.619 26.2093C166.619 26.2328 166.614 26.2445 166.607 26.2507C166.601 26.2568 166.59 26.2626 166.566 26.2626V26.3261C166.599 26.3261 166.63 26.3178 166.652 26.2956C166.675 26.2733 166.683 26.2426 166.683 26.2093H166.619ZM166.566 26.2626H141.655V26.3261H166.566V26.2626ZM141.655 26.2626C141.632 26.2626 141.62 26.2568 141.614 26.2507C141.608 26.2445 141.602 26.2328 141.602 26.2093H141.538C141.538 26.2426 141.547 26.2733 141.569 26.2956C141.591 26.3178 141.622 26.3261 141.655 26.3261V26.2626ZM141.602 26.2093V22.0405H141.538V26.2093H141.602ZM141.601 22.0482C141.605 22.0303 141.612 22.0201 141.62 22.0142C141.627 22.0084 141.638 22.0041 141.655 22.0041V21.9407C141.627 21.9407 141.601 21.9478 141.58 21.9646C141.559 21.9814 141.546 22.0053 141.539 22.0328L141.601 22.0482ZM192.243 10.0444L192.267 10.0237L192.265 10.0223L192.243 10.0444ZM190.609 20.5771L190.622 20.6064L190.625 20.6044L190.609 20.5771ZM189.877 20.9004L189.865 20.8714L189.83 20.8866L189.851 20.918L189.877 20.9004ZM193.434 26.2603L193.446 26.2898L193.482 26.2753L193.46 26.2428L193.434 26.2603ZM193.349 26.2944V26.3286L193.36 26.3238L193.349 26.2944ZM186.44 26.2944L186.417 26.3154L186.426 26.3261H186.44V26.2944ZM183.054 21.2748L183.081 21.2573L183.071 21.243H183.054V21.2748ZM174.189 21.2748V21.243H174.157V21.2748H174.189ZM168.353 8.12168L168.321 8.11533V8.12168H168.353ZM174.189 12.3756V12.3439H174.157V12.3756H174.189ZM174.189 16.9358H174.157V16.9675H174.189V16.9358ZM187.512 15.3874L187.543 15.3967L187.543 15.3933L187.512 15.3874ZM186.202 12.4947L186.214 12.465L186.211 12.4641L186.202 12.4947ZM168.438 8.06834H187.665V8.00487H168.438V8.06834ZM187.665 8.06834C189.403 8.06834 190.921 8.73369 192.22 10.0666L192.265 10.0223C190.955 8.67808 189.422 8.00487 187.665 8.00487V8.06834ZM192.219 10.0652C193.008 10.9791 193.402 11.9645 193.402 13.0222H193.465C193.465 11.9472 193.065 10.9475 192.267 10.0237L192.219 10.0652ZM193.402 13.0222V16.3232H193.465V13.0222H193.402ZM193.402 16.3232C193.402 18.0218 192.469 19.4307 190.593 20.5499L190.625 20.6044C192.515 19.4775 193.465 18.0505 193.465 16.3232H193.402ZM190.596 20.5481L189.865 20.8714L189.89 20.9295L190.622 20.6062L190.596 20.5481ZM189.851 20.918L193.407 26.2779L193.46 26.2428L189.904 20.8829L189.851 20.918ZM193.422 26.2309L193.337 26.2649L193.36 26.3238L193.446 26.2898L193.422 26.2309ZM193.349 26.2626H186.44V26.3261H193.349V26.2626ZM186.464 26.2734C186.423 26.2269 186.322 26.088 186.159 25.8541C185.997 25.621 185.775 25.2954 185.492 24.8771C184.928 24.0406 184.124 22.834 183.081 21.2573L183.028 21.2923C184.071 22.8691 184.875 24.0759 185.44 24.9126C185.722 25.3309 185.944 25.6569 186.107 25.8903C186.269 26.1229 186.372 26.2655 186.417 26.3154L186.464 26.2734ZM183.054 21.243H174.189V21.3065H183.054V21.243ZM174.157 21.2748V26.2093H174.221V21.2748H174.157ZM174.157 26.2093C174.157 26.2328 174.151 26.2445 174.145 26.2507C174.139 26.2568 174.127 26.2626 174.104 26.2626V26.3261C174.137 26.3261 174.168 26.3178 174.19 26.2956C174.212 26.2733 174.221 26.2426 174.221 26.2093H174.157ZM174.104 26.2626H168.438V26.3261H174.104V26.2626ZM168.438 26.2626C168.414 26.2626 168.403 26.2568 168.396 26.2507C168.39 26.2445 168.384 26.2328 168.384 26.2093H168.321C168.321 26.2426 168.329 26.2733 168.352 26.2956C168.374 26.3178 168.405 26.3261 168.438 26.3261V26.2626ZM168.384 26.2093V8.12168H168.321V26.2093H168.384ZM168.384 8.12791C168.389 8.1031 168.397 8.08851 168.405 8.08031C168.412 8.07289 168.422 8.06834 168.438 8.06834V8.00487C168.408 8.00487 168.381 8.0145 168.36 8.03543C168.34 8.0556 168.328 8.08354 168.322 8.11546L168.384 8.12791ZM174.157 12.3756V16.9358H174.221V12.3756H174.157ZM174.189 16.9675H185.266V16.904H174.189V16.9675ZM185.266 16.9675C185.861 16.9675 186.35 16.8375 186.731 16.5748C187.112 16.312 187.382 15.9183 187.543 15.3967L187.482 15.378C187.325 15.8887 187.062 16.2693 186.695 16.5225C186.327 16.776 185.852 16.904 185.266 16.904V16.9675ZM187.543 15.3933C187.589 15.1533 187.612 14.9187 187.612 14.6897H187.549C187.549 14.9145 187.526 15.145 187.481 15.3814L187.543 15.3933ZM187.612 14.6897C187.612 14.1352 187.496 13.6709 187.263 13.2988C187.029 12.9265 186.679 12.6488 186.214 12.4652L186.19 12.5242C186.645 12.7036 186.983 12.9733 187.209 13.3326C187.435 13.6921 187.549 14.1439 187.549 14.6897H187.612ZM186.211 12.4641C185.924 12.384 185.632 12.3439 185.334 12.3439V12.4073C185.626 12.4073 185.913 12.4466 186.194 12.5253L186.211 12.4641ZM185.334 12.3439H174.189V12.4073H185.334V12.3439ZM200.819 8.0366V8.0048L200.817 8.00493L200.819 8.0366ZM220.131 8.0366L220.138 8.00487H220.131V8.0366ZM202.452 12.3756V12.3436L202.448 12.3441L202.452 12.3756ZM201.874 15.0641L201.86 15.0928L201.861 15.0931L201.874 15.0641ZM219.025 17.191L219.049 17.1702L219.048 17.1689L219.025 17.191ZM217.102 25.7158L217.115 25.7449L217.117 25.7439L217.102 25.7158ZM195.135 22.0405L195.104 22.0325V22.0405H195.135ZM214.295 21.0195L214.325 21.0324L214.326 21.0248L214.295 21.0195ZM213.478 19.2669L213.492 19.2383L213.491 19.2378L213.478 19.2669ZM196.071 16.8677L196.046 16.8869L196.047 16.8885L196.071 16.8677ZM197.909 8.85335L197.895 8.82441L197.893 8.82601L197.909 8.85335ZM200.819 8.06834H220.131V8.00487H200.819V8.06834ZM220.125 8.06772C220.15 8.07268 220.164 8.08063 220.173 8.08882C220.18 8.09625 220.185 8.10621 220.185 8.12168H220.248C220.248 8.09178 220.238 8.06487 220.218 8.04394C220.197 8.02377 220.169 8.01187 220.138 8.00548L220.125 8.06772ZM220.185 8.12168V12.2905H220.248V8.12168H220.185ZM220.185 12.2905C220.185 12.314 220.179 12.3258 220.173 12.3319C220.167 12.338 220.155 12.3439 220.131 12.3439V12.4073C220.165 12.4073 220.195 12.399 220.218 12.3768C220.24 12.3545 220.248 12.3238 220.248 12.2905H220.185ZM220.131 12.3439H202.452V12.4073H220.131V12.3439ZM202.448 12.3441C201.951 12.407 201.573 12.559 201.32 12.8037C201.066 13.0491 200.94 13.3842 200.94 13.8049H201.003C201.003 13.3976 201.125 13.0804 201.364 12.8493C201.604 12.6176 201.966 12.469 202.456 12.4071L202.448 12.3441ZM200.94 13.8049C200.94 14.0889 201.017 14.3394 201.171 14.5551C201.326 14.7704 201.556 14.9493 201.86 15.0928L201.887 15.0354C201.59 14.8952 201.369 14.7225 201.223 14.5181C201.077 14.314 201.003 14.0767 201.003 13.8049H200.94ZM201.861 15.0931C202.047 15.1747 202.267 15.2149 202.52 15.2149V15.1514C202.274 15.1514 202.063 15.1122 201.886 15.035L201.861 15.0931ZM202.52 15.2149H214.533V15.1514H202.52V15.2149ZM214.533 15.2149C216.214 15.2149 217.703 15.88 219.003 17.2132L219.048 17.1689C217.738 15.8249 216.233 15.1514 214.533 15.1514V15.2149ZM219.001 17.2118C219.791 18.1258 220.185 19.0999 220.185 20.1347H220.248C220.248 19.0823 219.847 18.0939 219.049 17.1703L219.001 17.2118ZM220.185 20.1347V21.3939H220.248V20.1347H220.185ZM220.185 21.3939C220.185 23.1593 219.157 24.5909 217.088 25.6878L217.117 25.7439C219.2 24.6401 220.248 23.1904 220.248 21.3939H220.185ZM217.09 25.6869C216.231 26.0708 215.351 26.2626 214.448 26.2626V26.3261C215.36 26.3261 216.249 26.1323 217.115 25.7448L217.09 25.6869ZM214.448 26.2626H195.22V26.3261H214.448V26.2626ZM195.22 26.2626C195.197 26.2626 195.185 26.2568 195.179 26.2507C195.173 26.2445 195.167 26.2328 195.167 26.2093H195.104C195.104 26.2426 195.112 26.2733 195.134 26.2956C195.156 26.3178 195.187 26.3261 195.22 26.3261V26.2626ZM195.167 26.2093V22.0405H195.104V26.2093H195.167ZM195.166 22.0482C195.171 22.0303 195.178 22.0201 195.185 22.0142C195.192 22.0084 195.203 22.0041 195.22 22.0041V21.9407C195.192 21.9407 195.166 21.9478 195.145 21.9646C195.124 21.9814 195.111 22.0053 195.105 22.0328L195.166 22.0482ZM195.22 22.0041H212.815V21.9407H195.22V22.0041ZM212.815 22.0041C213.177 22.0041 213.485 21.9236 213.738 21.7609C213.991 21.5981 214.186 21.3544 214.324 21.032L214.266 21.007C214.132 21.3199 213.944 21.5527 213.703 21.7075C213.463 21.8624 213.167 21.9407 212.815 21.9407V22.0041ZM214.326 21.0248C214.349 20.8885 214.366 20.7805 214.377 20.7007C214.389 20.622 214.395 20.5685 214.395 20.5431H214.331C214.331 20.5631 214.326 20.6117 214.315 20.6917C214.303 20.7708 214.286 20.8783 214.264 21.0143L214.326 21.0248ZM214.395 20.5431C214.395 20.2537 214.319 19.9991 214.168 19.7806C214.017 19.5623 213.791 19.3819 213.492 19.2383L213.464 19.2955C213.756 19.4356 213.972 19.6096 214.116 19.8167C214.259 20.0236 214.331 20.2653 214.331 20.5431H214.395ZM213.491 19.2378C213.304 19.1562 213.079 19.1161 212.815 19.1161V19.1796C213.072 19.1796 213.289 19.2188 213.465 19.296L213.491 19.2378ZM212.815 19.1161H200.972V19.1796H212.815V19.1161ZM200.972 19.1161C199.03 19.1161 197.405 18.3603 196.095 16.8469L196.047 16.8885C197.369 18.4153 199.011 19.1796 200.972 19.1796V19.1161ZM196.097 16.8486C195.476 16.0253 195.167 15.1584 195.167 14.2473H195.104C195.104 15.1739 195.418 16.054 196.046 16.8868L196.097 16.8486ZM195.167 14.2473V12.9882H195.104V14.2473H195.167ZM195.167 12.9882C195.167 11.3351 196.082 9.96588 197.925 8.8807L197.893 8.82601C196.037 9.91883 195.104 11.3061 195.104 12.9882H195.167ZM197.922 8.88216C198.975 8.39554 199.941 8.12468 200.821 8.06828L200.817 8.00493C199.927 8.06197 198.953 8.33561 197.896 8.82455L197.922 8.88216ZM246.097 10.4018L246.123 10.3833L246.122 10.3818L246.097 10.4018ZM243.885 25.6818L243.899 25.7106L243.9 25.71L243.885 25.6818ZM222.769 23.8782L222.743 23.8965L222.744 23.8982L222.769 23.8782ZM225.355 8.49603L225.345 8.46576L225.342 8.46731L225.355 8.49603ZM230.051 21.8873L230.042 21.9176L230.043 21.918L230.051 21.8873ZM241.026 19.8455L240.997 19.834L240.997 19.8343L241.026 19.8455ZM238.985 12.4437L238.996 12.4129L238.988 12.4121L238.985 12.4437ZM227.873 14.4855L227.844 14.4742L227.843 14.477L227.873 14.4855ZM227.55 8.06834H241.112V8.00487H227.55V8.06834ZM241.112 8.06834C243.144 8.06834 244.797 8.85247 246.073 10.4218L246.122 10.3818C244.834 8.79752 243.163 8.00487 241.112 8.00487V8.06834ZM246.071 10.4203C246.669 11.2549 246.967 12.1334 246.967 13.0562H247.031C247.031 12.1187 246.728 11.2275 246.123 10.3833L246.071 10.4203ZM246.967 13.0562V21.3088H247.031V13.0562H246.967ZM246.967 21.3088C246.967 23.1426 245.939 24.591 243.871 25.6536L243.9 25.71C245.983 24.64 247.031 23.173 247.031 21.3088H246.967ZM243.872 25.6531C243.002 26.0595 242.083 26.2626 241.112 26.2626V26.3261C242.092 26.3261 243.021 26.1209 243.899 25.7106L243.872 25.6531ZM241.112 26.2626H227.72V26.3261H241.112V26.2626ZM227.72 26.2626C225.745 26.2626 224.103 25.4619 222.793 23.8581L222.744 23.8982C224.066 25.516 225.725 26.3261 227.72 26.3261V26.2626ZM222.795 23.8599C222.231 23.0591 221.95 22.226 221.95 21.3598H221.886C221.886 22.2407 222.172 23.0864 222.743 23.8964L222.795 23.8599ZM221.95 21.3598V13.0222H221.886V21.3598H221.95ZM221.95 13.0222C221.95 11.0986 223.084 9.59907 225.369 8.52474L225.342 8.46731C223.043 9.54829 221.886 11.0662 221.886 13.0222H221.95ZM225.365 8.5261C226.271 8.22024 226.999 8.06834 227.55 8.06834V8.00487C226.989 8.00487 226.254 8.15925 225.345 8.46596L225.365 8.5261ZM227.723 15.3533V18.9436H227.786V15.3533H227.723ZM227.723 18.9436C227.723 19.6867 227.916 20.3079 228.304 20.8051C228.691 21.302 229.272 21.6723 230.042 21.9176L230.061 21.8571C229.3 21.6146 228.731 21.2503 228.354 20.766C227.976 20.282 227.786 19.6753 227.786 18.9436H227.723ZM230.043 21.918C230.262 21.9755 230.491 22.0041 230.732 22.0041V21.9407C230.496 21.9407 230.272 21.9126 230.059 21.8566L230.043 21.918ZM230.732 22.0041H238.219V21.9407H230.732V22.0041ZM238.219 22.0041C238.894 22.0041 239.47 21.8252 239.944 21.466C240.418 21.1069 240.788 20.5696 241.056 19.8566L240.997 19.8343C240.732 20.5393 240.368 21.0654 239.906 21.4154C239.444 21.7651 238.882 21.9407 238.219 21.9407V22.0041ZM241.056 19.857C241.137 19.6476 241.177 19.371 241.177 19.0287H241.114C241.114 19.367 241.074 19.6349 240.997 19.834L241.056 19.857ZM241.177 19.0287V15.5575H241.114V19.0287H241.177ZM241.177 15.5575C241.177 14.7755 240.996 14.1208 240.631 13.5954C240.267 13.0699 239.721 12.6765 238.995 12.4138L238.974 12.4735C239.689 12.7326 240.224 13.1191 240.579 13.6316C240.935 14.1441 241.114 14.7854 241.114 15.5575H241.177ZM238.988 12.4121C238.568 12.3666 238.198 12.3439 237.879 12.3439V12.4073C238.195 12.4073 238.562 12.4299 238.981 12.4752L238.988 12.4121ZM237.879 12.3439H230.732V12.4073H237.879V12.3439ZM230.732 12.3439C230.04 12.3439 229.452 12.5212 228.969 12.8775C228.487 13.2337 228.112 13.7668 227.844 14.4743L227.903 14.4968C228.168 13.7976 228.536 13.2758 229.007 12.9286C229.477 12.5816 230.051 12.4073 230.732 12.4073V12.3439ZM227.843 14.477C227.763 14.7634 227.723 15.0555 227.723 15.3533H227.786C227.786 15.0613 227.825 14.7749 227.904 14.4941L227.843 14.477Z" fill="#D8D8D8"/>
<path d="M29.1209 44.5649L32.1557 36.4761H33.4253L36.448 44.5649H35.2389L34.6223 42.7997H30.9466L30.33 44.5649H29.1209ZM31.2973 41.8203H34.2716L32.7845 37.6248L31.2973 41.8203ZM40.1475 44.71C39.7042 44.71 39.273 44.6415 38.8538 44.5045C38.4347 44.3675 38.0639 44.1579 37.7414 43.8758C37.4271 43.5936 37.1974 43.2349 37.0523 42.7997L38.1042 42.4853C38.2009 42.7755 38.3581 43.0173 38.5757 43.2108C38.7934 43.3962 39.0432 43.5332 39.3254 43.6219C39.6155 43.7105 39.9057 43.7549 40.1959 43.7549C40.5183 43.7549 40.8246 43.7025 41.1148 43.5977C41.405 43.4929 41.6387 43.3357 41.8161 43.1261C42.0015 42.9085 42.0942 42.6385 42.0942 42.316C42.0942 41.9855 41.9733 41.7236 41.7314 41.5301C41.4896 41.3367 41.0705 41.1634 40.474 41.0102L39.4463 40.7805C39.0755 40.6838 38.7087 40.5548 38.346 40.3936C37.9913 40.2324 37.6971 40.0026 37.4634 39.7044C37.2377 39.4062 37.1248 39.0072 37.1248 38.5074C37.1248 38.0479 37.2659 37.657 37.548 37.3346C37.8382 37.0122 38.209 36.7663 38.6604 36.597C39.1198 36.4278 39.5954 36.3431 40.0871 36.3431C40.4659 36.3431 40.8367 36.3995 41.1994 36.5124C41.5702 36.6172 41.9007 36.7824 42.1909 37.0081C42.4891 37.2258 42.7229 37.5079 42.8922 37.8545L41.8524 38.1568C41.6992 37.8746 41.4493 37.661 41.1027 37.5159C40.7642 37.3709 40.4095 37.2983 40.0387 37.2983C39.7485 37.2983 39.4704 37.3467 39.2044 37.4434C38.9384 37.5321 38.7208 37.6691 38.5515 37.8545C38.3823 38.0399 38.2976 38.2736 38.2976 38.5558C38.2976 38.8218 38.3742 39.0354 38.5274 39.1966C38.6886 39.3578 38.8981 39.4868 39.1561 39.5835C39.4221 39.6722 39.7123 39.7528 40.0266 39.8253L40.9093 40.0188C41.3204 40.1155 41.7073 40.2485 42.07 40.4178C42.4327 40.587 42.7269 40.8248 42.9526 41.1311C43.1783 41.4374 43.2912 41.8485 43.2912 42.3644C43.2912 42.7352 43.2025 43.0697 43.0252 43.3679C42.8478 43.6581 42.61 43.904 42.3118 44.1055C42.0136 44.2989 41.675 44.4481 41.2962 44.5529C40.9254 44.6576 40.5425 44.71 40.1475 44.71ZM47.3501 44.71C46.9068 44.71 46.4756 44.6415 46.0564 44.5045C45.6372 44.3675 45.2665 44.1579 44.944 43.8758C44.6297 43.5936 44.3999 43.2349 44.2549 42.7997L45.3068 42.4853C45.4035 42.7755 45.5607 43.0173 45.7783 43.2108C45.9959 43.3962 46.2458 43.5332 46.5279 43.6219C46.8181 43.7105 47.1083 43.7549 47.3985 43.7549C47.7209 43.7549 48.0272 43.7025 48.3174 43.5977C48.6076 43.4929 48.8413 43.3357 49.0187 43.1261C49.2041 42.9085 49.2968 42.6385 49.2968 42.316C49.2968 41.9855 49.1759 41.7236 48.934 41.5301C48.6922 41.3367 48.2731 41.1634 47.6766 41.0102L46.6489 40.7805C46.2781 40.6838 45.9113 40.5548 45.5486 40.3936C45.1939 40.2324 44.8997 40.0026 44.6659 39.7044C44.4402 39.4062 44.3274 39.0072 44.3274 38.5074C44.3274 38.0479 44.4685 37.657 44.7506 37.3346C45.0408 37.0122 45.4116 36.7663 45.8629 36.597C46.3224 36.4278 46.798 36.3431 47.2897 36.3431C47.6685 36.3431 48.0393 36.3995 48.402 36.5124C48.7728 36.6172 49.1033 36.7824 49.3935 37.0081C49.6917 37.2258 49.9255 37.5079 50.0948 37.8545L49.0549 38.1568C48.9018 37.8746 48.6519 37.661 48.3053 37.5159C47.9668 37.3709 47.6121 37.2983 47.2413 37.2983C46.9511 37.2983 46.673 37.3467 46.407 37.4434C46.141 37.5321 45.9234 37.6691 45.7541 37.8545C45.5849 38.0399 45.5002 38.2736 45.5002 38.5558C45.5002 38.8218 45.5768 39.0354 45.7299 39.1966C45.8912 39.3578 46.1007 39.4868 46.3587 39.5835C46.6247 39.6722 46.9149 39.7528 47.2292 39.8253L48.1119 40.0188C48.5229 40.1155 48.9099 40.2485 49.2726 40.4178C49.6353 40.587 49.9295 40.8248 50.1552 41.1311C50.3809 41.4374 50.4938 41.8485 50.4938 42.3644C50.4938 42.7352 50.4051 43.0697 50.2278 43.3679C50.0504 43.6581 49.8126 43.904 49.5144 44.1055C49.2162 44.2989 48.8776 44.4481 48.4988 44.5529C48.128 44.6576 47.7451 44.71 47.3501 44.71ZM51.8927 44.5649V36.4882H57.3699V37.4676H53.0293V39.922H56.2334V40.9014H53.0293V43.5856H57.3699V44.5649H51.8927ZM61.4129 44.71C60.9696 44.71 60.5383 44.6415 60.1192 44.5045C59.7 44.3675 59.3292 44.1579 59.0068 43.8758C58.6924 43.5936 58.4627 43.2349 58.3176 42.7997L59.3695 42.4853C59.4663 42.7755 59.6234 43.0173 59.8411 43.2108C60.0587 43.3962 60.3086 43.5332 60.5907 43.6219C60.8809 43.7105 61.1711 43.7549 61.4613 43.7549C61.7837 43.7549 62.09 43.7025 62.3802 43.5977C62.6703 43.4929 62.9041 43.3357 63.0814 43.1261C63.2668 42.9085 63.3595 42.6385 63.3595 42.316C63.3595 41.9855 63.2386 41.7236 62.9968 41.5301C62.755 41.3367 62.3358 41.1634 61.7393 41.0102L60.7116 40.7805C60.3408 40.6838 59.9741 40.5548 59.6113 40.3936C59.2567 40.2324 58.9625 40.0026 58.7287 39.7044C58.503 39.4062 58.3902 39.0072 58.3902 38.5074C58.3902 38.0479 58.5312 37.657 58.8133 37.3346C59.1035 37.0122 59.4743 36.7663 59.9257 36.597C60.3852 36.4278 60.8607 36.3431 61.3524 36.3431C61.7313 36.3431 62.1021 36.3995 62.4648 36.5124C62.8356 36.6172 63.1661 36.7824 63.4563 37.0081C63.7545 37.2258 63.9883 37.5079 64.1575 37.8545L63.1177 38.1568C62.9646 37.8746 62.7147 37.661 62.3681 37.5159C62.0295 37.3709 61.6749 37.2983 61.3041 37.2983C61.0139 37.2983 60.7358 37.3467 60.4698 37.4434C60.2038 37.5321 59.9862 37.6691 59.8169 37.8545C59.6476 38.0399 59.563 38.2736 59.563 38.5558C59.563 38.8218 59.6396 39.0354 59.7927 39.1966C59.9539 39.3578 60.1635 39.4868 60.4214 39.5835C60.6874 39.6722 60.9776 39.7528 61.292 39.8253L62.1746 40.0188C62.5857 40.1155 62.9726 40.2485 63.3353 40.4178C63.6981 40.587 63.9923 40.8248 64.218 41.1311C64.4437 41.4374 64.5565 41.8485 64.5565 42.3644C64.5565 42.7352 64.4679 43.0697 64.2905 43.3679C64.1132 43.6581 63.8754 43.904 63.5772 44.1055C63.2789 44.2989 62.9404 44.4481 62.5615 44.5529C62.1907 44.6576 61.8079 44.71 61.4129 44.71ZM68.6155 44.71C68.1722 44.71 67.7409 44.6415 67.3218 44.5045C66.9026 44.3675 66.5318 44.1579 66.2094 43.8758C65.895 43.5936 65.6653 43.2349 65.5202 42.7997L66.5721 42.4853C66.6688 42.7755 66.826 43.0173 67.0437 43.2108C67.2613 43.3962 67.5112 43.5332 67.7933 43.6219C68.0835 43.7105 68.3737 43.7549 68.6638 43.7549C68.9863 43.7549 69.2926 43.7025 69.5828 43.5977C69.8729 43.4929 70.1067 43.3357 70.284 43.1261C70.4694 42.9085 70.5621 42.6385 70.5621 42.316C70.5621 41.9855 70.4412 41.7236 70.1994 41.5301C69.9576 41.3367 69.5384 41.1634 68.9419 41.0102L67.9142 40.7805C67.5434 40.6838 67.1767 40.5548 66.8139 40.3936C66.4593 40.2324 66.1651 40.0026 65.9313 39.7044C65.7056 39.4062 65.5928 39.0072 65.5928 38.5074C65.5928 38.0479 65.7338 37.657 66.0159 37.3346C66.3061 37.0122 66.6769 36.7663 67.1283 36.597C67.5878 36.4278 68.0633 36.3431 68.555 36.3431C68.9339 36.3431 69.3047 36.3995 69.6674 36.5124C70.0382 36.6172 70.3687 36.7824 70.6588 37.0081C70.9571 37.2258 71.1908 37.5079 71.3601 37.8545L70.3203 38.1568C70.1672 37.8746 69.9173 37.661 69.5707 37.5159C69.2321 37.3709 68.8775 37.2983 68.5067 37.2983C68.2165 37.2983 67.9384 37.3467 67.6724 37.4434C67.4064 37.5321 67.1888 37.6691 67.0195 37.8545C66.8502 38.0399 66.7656 38.2736 66.7656 38.5558C66.7656 38.8218 66.8422 39.0354 66.9953 39.1966C67.1565 39.3578 67.3661 39.4868 67.624 39.5835C67.89 39.6722 68.1802 39.7528 68.4946 39.8253L69.3772 40.0188C69.7883 40.1155 70.1752 40.2485 70.5379 40.4178C70.9007 40.587 71.1949 40.8248 71.4206 41.1311C71.6463 41.4374 71.7591 41.8485 71.7591 42.3644C71.7591 42.7352 71.6705 43.0697 71.4931 43.3679C71.3158 43.6581 71.078 43.904 70.7798 44.1055C70.4815 44.2989 70.143 44.4481 69.7641 44.5529C69.3933 44.6576 69.0105 44.71 68.6155 44.71ZM76.6282 44.71C75.8543 44.71 75.1853 44.5327 74.6211 44.178C74.0568 43.8153 73.6175 43.3196 73.3032 42.6909C72.9969 42.0541 72.8437 41.3286 72.8437 40.5145C72.8437 39.7004 72.9969 38.983 73.3032 38.3623C73.6175 37.7336 74.0568 37.2419 74.6211 36.8872C75.1853 36.5245 75.8543 36.3431 76.6282 36.3431C77.41 36.3431 78.0831 36.5245 78.6473 36.8872C79.2116 37.2419 79.6469 37.7336 79.9532 38.3623C80.2675 38.983 80.4247 39.7004 80.4247 40.5145C80.4247 41.3286 80.2675 42.0541 79.9532 42.6909C79.6469 43.3196 79.2116 43.8153 78.6473 44.178C78.0831 44.5327 77.41 44.71 76.6282 44.71ZM76.6282 43.7549C77.1199 43.7549 77.5632 43.6299 77.9582 43.38C78.3612 43.1302 78.6796 42.7674 78.9133 42.2919C79.1471 41.8082 79.264 41.2158 79.264 40.5145C79.264 39.8213 79.1471 39.2369 78.9133 38.7613C78.6796 38.2777 78.3612 37.9149 77.9582 37.6731C77.5632 37.4232 77.1199 37.2983 76.6282 37.2983C76.1445 37.2983 75.7012 37.4232 75.2982 37.6731C74.9032 37.9149 74.5888 38.2777 74.3551 38.7613C74.1213 39.2369 74.0044 39.8213 74.0044 40.5145C74.0044 41.2158 74.1213 41.8082 74.3551 42.2919C74.5888 42.7674 74.9032 43.1302 75.2982 43.38C75.7012 43.6299 76.1445 43.7549 76.6282 43.7549ZM81.9429 44.5649V36.4882H84.5061C85.1671 36.4882 85.7475 36.5487 86.2472 36.6696C86.7551 36.7824 87.15 37.0081 87.4321 37.3467C87.7223 37.6772 87.8674 38.1648 87.8674 38.8097C87.8674 39.1724 87.811 39.5109 87.6981 39.8253C87.5853 40.1397 87.3677 40.4057 87.0452 40.6233C86.7309 40.8409 86.2593 40.9941 85.6306 41.0828L88.1334 44.5649H86.743L84.2885 41.1674H83.0794V44.5649H81.9429ZM83.0794 40.2122H84.5908C84.9858 40.2122 85.3404 40.184 85.6548 40.1276C85.9772 40.0712 86.2311 39.9462 86.4165 39.7528C86.61 39.5512 86.7067 39.2449 86.7067 38.8339C86.7067 38.4147 86.61 38.1084 86.4165 37.9149C86.2311 37.7215 85.9772 37.5965 85.6548 37.5401C85.3404 37.4756 84.9858 37.4434 84.5908 37.4434H83.0794V40.2122ZM89.2961 44.5649V43.6702H90.4327V37.3829H89.2961V36.4882H92.7058V37.3829H91.5692V43.6702H92.7058V44.5649H89.2961ZM93.6254 44.5649L96.6603 36.4761H97.9298L100.953 44.5649H99.7434L99.1268 42.7997H95.4512L94.8345 44.5649H93.6254ZM95.8018 41.8203H98.7762L97.289 37.6248L95.8018 41.8203ZM105.381 44.5649V36.4882H110.858V37.4676H106.517V39.922H109.721V40.9014H106.517V43.5856H110.858V44.5649H105.381ZM112.241 44.5649V36.4882H114.127L116.279 43.0899L118.432 36.4882H120.318V44.5649H119.181V37.6731L116.848 44.5649H115.723L113.378 37.6731V44.5649H112.241ZM125.427 44.5649V43.6702H126.564V37.3829H125.427V36.4882H128.837V37.3829H127.7V43.6702H128.837V44.5649H125.427ZM130.554 44.5649V36.4882H132.235L135.911 43.3559V36.4882H137.047V44.5649H135.379L131.691 37.661V44.5649H130.554ZM140.861 44.5649L138.093 36.4882H139.338L141.526 43.2349L143.727 36.4882H144.972L142.191 44.5649H140.861ZM146.011 44.5649V36.4882H151.488V37.4676H147.147V39.922H150.351V40.9014H147.147V43.5856H151.488V44.5649H146.011ZM155.531 44.71C155.087 44.71 154.656 44.6415 154.237 44.5045C153.818 44.3675 153.447 44.1579 153.125 43.8758C152.81 43.5936 152.581 43.2349 152.435 42.7997L153.487 42.4853C153.584 42.7755 153.741 43.0173 153.959 43.2108C154.177 43.3962 154.426 43.5332 154.709 43.6219C154.999 43.7105 155.289 43.7549 155.579 43.7549C155.901 43.7549 156.208 43.7025 156.498 43.5977C156.788 43.4929 157.022 43.3357 157.199 43.1261C157.385 42.9085 157.477 42.6385 157.477 42.316C157.477 41.9855 157.356 41.7236 157.115 41.5301C156.873 41.3367 156.454 41.1634 155.857 41.0102L154.829 40.7805C154.459 40.6838 154.092 40.5548 153.729 40.3936C153.374 40.2324 153.08 40.0026 152.847 39.7044C152.621 39.4062 152.508 39.0072 152.508 38.5074C152.508 38.0479 152.649 37.657 152.931 37.3346C153.221 37.0122 153.592 36.7663 154.044 36.597C154.503 36.4278 154.979 36.3431 155.47 36.3431C155.849 36.3431 156.22 36.3995 156.583 36.5124C156.953 36.6172 157.284 36.7824 157.574 37.0081C157.872 37.2258 158.106 37.5079 158.275 37.8545L157.236 38.1568C157.082 37.8746 156.832 37.661 156.486 37.5159C156.147 37.3709 155.793 37.2983 155.422 37.2983C155.132 37.2983 154.854 37.3467 154.588 37.4434C154.322 37.5321 154.104 37.6691 153.935 37.8545C153.765 38.0399 153.681 38.2736 153.681 38.5558C153.681 38.8218 153.757 39.0354 153.911 39.1966C154.072 39.3578 154.281 39.4868 154.539 39.5835C154.805 39.6722 155.095 39.7528 155.41 39.8253L156.292 40.0188C156.704 40.1155 157.09 40.2485 157.453 40.4178C157.816 40.587 158.11 40.8248 158.336 41.1311C158.561 41.4374 158.674 41.8485 158.674 42.3644C158.674 42.7352 158.586 43.0697 158.408 43.3679C158.231 43.6581 157.993 43.904 157.695 44.1055C157.397 44.2989 157.058 44.4481 156.679 44.5529C156.309 44.6576 155.926 44.71 155.531 44.71ZM161.959 44.5649V37.4676H159.275V36.4882H165.78V37.4676H163.096V44.5649H161.959ZM166.694 44.5649V43.6702H167.831V37.3829H166.694V36.4882H170.104V37.3829H168.968V43.6702H170.104V44.5649H166.694ZM171.822 44.5649V36.4882H173.708L175.86 43.0899L178.012 36.4882H179.898V44.5649H178.762V37.6731L176.428 44.5649H175.304L172.958 37.6731V44.5649H171.822ZM181.74 44.5649V36.4882H187.217V37.4676H182.877V39.922H186.081V40.9014H182.877V43.5856H187.217V44.5649H181.74ZM188.6 44.5649V36.4882H190.281L193.957 43.3559V36.4882H195.093V44.5649H193.425L189.737 37.661V44.5649H188.6ZM198.823 44.5649V37.4676H196.138V36.4882H202.643V37.4676H199.959V44.5649H198.823ZM206.688 44.71C205.914 44.71 205.245 44.5327 204.681 44.178C204.117 43.8153 203.677 43.3196 203.363 42.6909C203.057 42.0541 202.904 41.3286 202.904 40.5145C202.904 39.7004 203.057 38.983 203.363 38.3623C203.677 37.7336 204.117 37.2419 204.681 36.8872C205.245 36.5245 205.914 36.3431 206.688 36.3431C207.47 36.3431 208.143 36.5245 208.707 36.8872C209.271 37.2419 209.707 37.7336 210.013 38.3623C210.327 38.983 210.485 39.7004 210.485 40.5145C210.485 41.3286 210.327 42.0541 210.013 42.6909C209.707 43.3196 209.271 43.8153 208.707 44.178C208.143 44.5327 207.47 44.71 206.688 44.71ZM206.688 43.7549C207.18 43.7549 207.623 43.6299 208.018 43.38C208.421 43.1302 208.739 42.7674 208.973 42.2919C209.207 41.8082 209.324 41.2158 209.324 40.5145C209.324 39.8213 209.207 39.2369 208.973 38.7613C208.739 38.2777 208.421 37.9149 208.018 37.6731C207.623 37.4232 207.18 37.2983 206.688 37.2983C206.204 37.2983 205.761 37.4232 205.358 37.6731C204.963 37.9149 204.649 38.2777 204.415 38.7613C204.181 39.2369 204.064 39.8213 204.064 40.5145C204.064 41.2158 204.181 41.8082 204.415 42.2919C204.649 42.7674 204.963 43.1302 205.358 43.38C205.761 43.6299 206.204 43.7549 206.688 43.7549ZM214.663 44.71C214.219 44.71 213.788 44.6415 213.369 44.5045C212.95 44.3675 212.579 44.1579 212.257 43.8758C211.942 43.5936 211.713 43.2349 211.568 42.7997L212.619 42.4853C212.716 42.7755 212.873 43.0173 213.091 43.2108C213.309 43.3962 213.558 43.5332 213.841 43.6219C214.131 43.7105 214.421 43.7549 214.711 43.7549C215.034 43.7549 215.34 43.7025 215.63 43.5977C215.92 43.4929 216.154 43.3357 216.331 43.1261C216.517 42.9085 216.609 42.6385 216.609 42.316C216.609 41.9855 216.489 41.7236 216.247 41.5301C216.005 41.3367 215.586 41.1634 214.989 41.0102L213.962 40.7805C213.591 40.6838 213.224 40.5548 212.861 40.3936C212.507 40.2324 212.212 40.0026 211.979 39.7044C211.753 39.4062 211.64 39.0072 211.64 38.5074C211.64 38.0479 211.781 37.657 212.063 37.3346C212.353 37.0122 212.724 36.7663 213.176 36.597C213.635 36.4278 214.111 36.3431 214.602 36.3431C214.981 36.3431 215.352 36.3995 215.715 36.5124C216.085 36.6172 216.416 36.7824 216.706 37.0081C217.004 37.2258 217.238 37.5079 217.407 37.8545L216.368 38.1568C216.214 37.8746 215.965 37.661 215.618 37.5159C215.279 37.3709 214.925 37.2983 214.554 37.2983C214.264 37.2983 213.986 37.3467 213.72 37.4434C213.454 37.5321 213.236 37.6691 213.067 37.8545C212.898 38.0399 212.813 38.2736 212.813 38.5558C212.813 38.8218 212.889 39.0354 213.043 39.1966C213.204 39.3578 213.413 39.4868 213.671 39.5835C213.937 39.6722 214.228 39.7528 214.542 39.8253L215.425 40.0188C215.836 40.1155 216.223 40.2485 216.585 40.4178C216.948 40.587 217.242 40.8248 217.468 41.1311C217.694 41.4374 217.806 41.8485 217.806 42.3644C217.806 42.7352 217.718 43.0697 217.54 43.3679C217.363 43.6581 217.125 43.904 216.827 44.1055C216.529 44.2989 216.19 44.4481 215.811 44.5529C215.441 44.6576 215.058 44.71 214.663 44.71Z" fill="black"/>
</svg>
