<svg width="92" height="72" viewBox="0 0 92 72" fill="none" xmlns="http://www.w3.org/2000/svg">
<path fill-rule="evenodd" clip-rule="evenodd" d="M9.74196 0.300415H80.3211V12.7573L91.3237 10.5501L84.4104 25.6178L76.4147 28.229L40.8676 58.4472L35.9866 63.238L35.6313 62.8986L35.1284 63.3263L22.0842 51.2722L9.74196 61.031V60.5126L0.296082 68.3742L9.74196 51.6412V0.300415Z" fill="url(#paint0_linear_258_48)" stroke="#D8D8D8" stroke-width="0.166559" stroke-miterlimit="22.9256"/>
<path fill-rule="evenodd" clip-rule="evenodd" d="M9.90546 66.9067H80.4846V22.8632L36.6588 64.5876L22.7277 53.108L9.90546 59.9584V66.9067Z" fill="black" stroke="#D8D8D8" stroke-width="0.166559" stroke-miterlimit="22.9256"/>
<path fill-rule="evenodd" clip-rule="evenodd" d="M27.8238 20.5695H38.8857V50.7726L35.5853 53.7387L27.8238 44.4642V20.5695Z" fill="white" stroke="#D8D8D8" stroke-width="0.166559" stroke-miterlimit="22.9256"/>
<path fill-rule="evenodd" clip-rule="evenodd" d="M40.4498 15.0298H51.5117V39.4252L40.4498 49.367V15.0298Z" fill="white" stroke="#D8D8D8" stroke-width="0.166559" stroke-miterlimit="22.9256"/>
<path fill-rule="evenodd" clip-rule="evenodd" d="M52.7601 9.28503H63.8222V28.3617L52.7601 38.3033V9.28503Z" fill="white" stroke="#D8D8D8" stroke-width="0.166559" stroke-miterlimit="22.9256"/>
<path fill-rule="evenodd" clip-rule="evenodd" d="M0.296082 68.3745L23.0016 42.6596L35.3118 55.7906L70.875 23.7838L66.4638 21.1082L89.5455 12.1917L79.6975 37.9406L77.6457 31.7172L36.064 71.7256L22.1806 56.0642L0.296082 68.3745Z" fill="white"/>
<defs>
<linearGradient id="paint0_linear_258_48" x1="-11.7761" y1="52.8497" x2="115.701" y2="52.8497" gradientUnits="userSpaceOnUse">
<stop stop-color="#0B87EB"/>
<stop offset="1" stop-color="#07C0F6"/>
</linearGradient>
</defs>
</svg>
